<?xml version="1.0" encoding="UTF-8"?>
<svg xmlns="http://www.w3.org/2000/svg" viewBox="0 0 840 420" role="img" aria-label="Dala Taxi SÄTER">
  <defs>
    <filter id="softShadow" x="-20%" y="-20%" width="140%" height="140%">
      <feDropShadow dx="0" dy="12" stdDeviation="12" flood-color="#000000" flood-opacity="0.32"/>
    </filter>
  </defs>
  <rect width="840" height="420" rx="24" fill="#050505"/>
  <g filter="url(#softShadow)">
    <text x="52" y="126" fill="#ffffff" font-family="Arial Black, Impact, Arial, sans-serif" font-size="108" font-weight="900" letter-spacing="2">DALA</text>
    <text x="452" y="126" fill="#f7d313" font-family="Arial Black, Impact, Arial, sans-serif" font-size="108" font-weight="900" letter-spacing="2">TAXI</text>
  </g>
  <g transform="translate(0 162)">
    <path d="M0 0h840v34c-38 0-38 34-76 34s-38-34-76-34-38 34-76 34-38-34-76-34-38 34-76 34-38-34-76-34-38 34-76 34-38-34-76-34-38 34-76 34-38-34-76-34S38 68 0 68Z" fill="#ffffff"/>
    <clipPath id="waveClip">
      <path d="M0 0h840v34c-38 0-38 34-76 34s-38-34-76-34-38 34-76 34-38-34-76-34-38 34-76 34-38-34-76-34-38 34-76 34-38-34-76-34-38 34-76 34-38-34-76-34S38 68 0 68Z"/>
    </clipPath>
    <g clip-path="url(#waveClip)">
      <rect x="-31" y="0" width="31" height="31" fill="#ffffff"/><rect x="0" y="0" width="31" height="31" fill="#f7d313"/><rect x="31" y="0" width="31" height="31" fill="#ffffff"/><rect x="62" y="0" width="31" height="31" fill="#f7d313"/><rect x="93" y="0" width="31" height="31" fill="#ffffff"/><rect x="124" y="0" width="31" height="31" fill="#f7d313"/><rect x="155" y="0" width="31" height="31" fill="#ffffff"/><rect x="186" y="0" width="31" height="31" fill="#f7d313"/><rect x="217" y="0" width="31" height="31" fill="#ffffff"/><rect x="248" y="0" width="31" height="31" fill="#f7d313"/><rect x="279" y="0" width="31" height="31" fill="#ffffff"/><rect x="310" y="0" width="31" height="31" fill="#f7d313"/><rect x="341" y="0" width="31" height="31" fill="#ffffff"/><rect x="372" y="0" width="31" height="31" fill="#f7d313"/><rect x="403" y="0" width="31" height="31" fill="#ffffff"/><rect x="434" y="0" width="31" height="31" fill="#f7d313"/><rect x="465" y="0" width="31" height="31" fill="#ffffff"/><rect x="496" y="0" width="31" height="31" fill="#f7d313"/><rect x="527" y="0" width="31" height="31" fill="#ffffff"/><rect x="558" y="0" width="31" height="31" fill="#f7d313"/><rect x="589" y="0" width="31" height="31" fill="#ffffff"/><rect x="620" y="0" width="31" height="31" fill="#f7d313"/><rect x="651" y="0" width="31" height="31" fill="#ffffff"/><rect x="682" y="0" width="31" height="31" fill="#f7d313"/><rect x="713" y="0" width="31" height="31" fill="#ffffff"/><rect x="744" y="0" width="31" height="31" fill="#f7d313"/><rect x="775" y="0" width="31" height="31" fill="#ffffff"/><rect x="806" y="0" width="31" height="31" fill="#f7d313"/><rect x="837" y="0" width="31" height="31" fill="#ffffff"/><rect x="868" y="0" width="31" height="31" fill="#f7d313"/>
      <rect x="-15.5" y="31" width="31" height="31" fill="#ffffff"/><rect x="15.5" y="31" width="31" height="31" fill="#f7d313"/><rect x="46.5" y="31" width="31" height="31" fill="#ffffff"/><rect x="77.5" y="31" width="31" height="31" fill="#f7d313"/><rect x="108.5" y="31" width="31" height="31" fill="#ffffff"/><rect x="139.5" y="31" width="31" height="31" fill="#f7d313"/><rect x="170.5" y="31" width="31" height="31" fill="#ffffff"/><rect x="201.5" y="31" width="31" height="31" fill="#f7d313"/><rect x="232.5" y="31" width="31" height="31" fill="#ffffff"/><rect x="263.5" y="31" width="31" height="31" fill="#f7d313"/><rect x="294.5" y="31" width="31" height="31" fill="#ffffff"/><rect x="325.5" y="31" width="31" height="31" fill="#f7d313"/><rect x="356.5" y="31" width="31" height="31" fill="#ffffff"/><rect x="387.5" y="31" width="31" height="31" fill="#f7d313"/><rect x="418.5" y="31" width="31" height="31" fill="#ffffff"/><rect x="449.5" y="31" width="31" height="31" fill="#f7d313"/><rect x="480.5" y="31" width="31" height="31" fill="#ffffff"/><rect x="511.5" y="31" width="31" height="31" fill="#f7d313"/><rect x="542.5" y="31" width="31" height="31" fill="#ffffff"/><rect x="573.5" y="31" width="31" height="31" fill="#f7d313"/><rect x="604.5" y="31" width="31" height="31" fill="#ffffff"/><rect x="635.5" y="31" width="31" height="31" fill="#f7d313"/><rect x="666.5" y="31" width="31" height="31" fill="#ffffff"/><rect x="697.5" y="31" width="31" height="31" fill="#f7d313"/><rect x="728.5" y="31" width="31" height="31" fill="#ffffff"/><rect x="759.5" y="31" width="31" height="31" fill="#f7d313"/><rect x="790.5" y="31" width="31" height="31" fill="#ffffff"/><rect x="821.5" y="31" width="31" height="31" fill="#f7d313"/><rect x="852.5" y="31" width="31" height="31" fill="#ffffff"/><rect x="883.5" y="31" width="31" height="31" fill="#f7d313"/>
      <rect x="0" y="0" width="840" height="68" fill="none" stroke="#050505" stroke-width="8"/>
    </g>
  </g>
  <text x="420" y="344" text-anchor="middle" fill="#ffffff" font-family="Arial Black, Impact, Arial, sans-serif" font-size="116" font-weight="900" letter-spacing="4">SÄTER</text>
  <path d="M278 376h284" stroke="#f7d313" stroke-width="13" stroke-linecap="round"/>
</svg>
